/* XPM */
static char *_b65b8e6e4fe4c9fea2b8fc9d32f1050lBJtk6AVfMkBvRD0[] = {
/* columns rows colors chars-per-pixel */
"32 32 2 1 ",
"  c red",
". c white",
/* pixels */
"    ..       .  .   ............",
"    ..       .   ...............",
"    ..       .   .. ............",
"    ..       .   .. ............",
"    ..       .   .. ............",
"    ..       .   .. ............",
"    ..       .   .. ............",
"    ..       .   .. ............",
"    ..       .   .. ............",
"    ..       .   .. ............",
"    ..       .   .. ............",
"    ..       .   .. ............",
"    ..       .   ..           . ",
"    ..       .   .............. ",
"    ..       .   .............. ",
"    ..       .                 .",
"    ..      .                   ",
"    ..      .                   ",
"    ..     .    ................",
"    ..    .   ..                ",
"    ..  ..   .                  ",
"    ....    .                   ",
"    ...    .                    ",
"    ...    .                    ",
"     ...  .                     ",
"    .  ....                     ",
"    .  .........................",
"   .... ........................",
"   ..                           ",
"                                ",
"                                ",
"                                "
};
