/* XPM */
static char *_01ec868d77643e08e68b55be7e480b16nrAYg1ol9Vh2kGT[] = {
/* columns rows colors chars-per-pixel */
"32 32 2 1 ",
"  c red",
". c white",
/* pixels */
"                                ",
"                                ",
"                                ",
"                           ..   ",
"........................ ....   ",
".........................  .    ",
"                     ....  .    ",
"                     .  ...     ",
"                    .    ...    ",
"                    .    ...    ",
"                   .    ....    ",
"                  .   ..  ..    ",
"                ..   .    ..    ",
"................    .     ..    ",
"                   .      ..    ",
"                   .      ..    ",
".                 .       ..    ",
" ..............   .       ..    ",
" ..............   .       ..    ",
" .           ..   .       ..    ",
"............ ..   .       ..    ",
"............ ..   .       ..    ",
"............ ..   .       ..    ",
"............ ..   .       ..    ",
"............ ..   .       ..    ",
"............ ..   .       ..    ",
"............ ..   .       ..    ",
"............ ..   .       ..    ",
"............ ..   .       ..    ",
"............ ..   .       ..    ",
"...............   .       ..    ",
"............   .  .       ..    "
};
