/* XPM */
static char *_ba0fda33eb24725cb65d6fbef15fedeGOshColkkuZzU7B3[] = {
/* columns rows colors chars-per-pixel */
"32 32 2 1 ",
"  c red",
". c white",
/* pixels */
"............   .  .       ..    ",
"...............   .       ..    ",
"............ ..   .       ..    ",
"............ ..   .       ..    ",
"............ ..   .       ..    ",
"............ ..   .       ..    ",
"............ ..   .       ..    ",
"............ ..   .       ..    ",
"............ ..   .       ..    ",
"............ ..   .       ..    ",
"............ ..   .       ..    ",
"............ ..   .       ..    ",
"............ ..   .       ..    ",
"............ ..   .       ..    ",
"...............   .       ..    ",
"............   .  .       ..    ",
"............   .  .       ..    ",
"...............   .       ..    ",
"............ ..   .       ..    ",
"............ ..   .       ..    ",
"............ ..   .       ..    ",
"............ ..   .       ..    ",
"............ ..   .       ..    ",
"............ ..   .       ..    ",
"............ ..   .       ..    ",
"............ ..   .       ..    ",
"............ ..   .       ..    ",
"............ ..   .       ..    ",
"............ ..   .       ..    ",
"............ ..   .       ..    ",
"...............   .       ..    ",
"............   .  .       ..    "
};
