/* XPM */
static char *_04cff28af3d4ee1ade8ed4d904fc6989NYdsfPC6LI33kAb[] = {
/* columns rows colors chars-per-pixel */
"32 32 2 1 ",
"  c red",
". c white",
/* pixels */
"................................",
"................................",
"................................",
"................................",
"................................",
"................................",
"................................",
"................................",
"................................",
"................................",
"................................",
"................................",
" .            .  .            . ",
" ..............  .............. ",
" ..............  .............. ",
".              ..              .",
"                                ",
"                                ",
"................................",
"                                ",
"                                ",
"                                ",
"                                ",
"                                ",
"                                ",
"                                ",
"................................",
"................................",
"                                ",
"                                ",
"                                ",
"                                "
};
