/* XPM */
static char *d29f94796d2546afc1ce46a513d7d3852cn6CvRtIZxn1TlE[] = {
/* columns rows colors chars-per-pixel */
"32 32 2 1 ",
"  c #000001",
"+ c white",
/* pixels */
"+   + +  + +  +++   + +  + +  ++",
"  ++++++++++++    ++++++++++++  ",
" ++++++++++++++  ++++++++++++++ ",
" +++++++++++++++ ++++++ ++ +++++",
" +++++++ ++ +++  +++++++  +++++ ",
" +++++++++ +++++ ++++++ ++++++++",
" ++++++++++  ++  ++++++++++++++ ",
" +++++++++++ +++ ++++++ ++++++++",
" + +  ++++ +  +  +      +   + + ",
"++++++  + ++       +++    ++++++",
"+++++++      ++++     ++ +++++++",
"++++++++  +++           ++++++++",
"+++++++ ++               +++++++",
"++++++ +                + ++++++",
"++++                    + ++++++",
"+++++                    +  ++++",
"+                          +  ++",
"  ++                     +++++++",
" ++++                      ++++ ",
" +++                      ++++++",
" ++  ++                   +++++ ",
" +++++++                 +++++++",
" ++++++++++          +++ ++++++ ",
" +++++++++++     ++++++++ ++++++",
" + +  +++      +++ +  +++   + + ",
"++++++    +++ ++++++++    ++++++",
"+++++++  ++++++++++++++  +  ++++",
"+++++++ ++++ ++++++++++ +++ ++++",
"+++++++  ++++++++++++++  +++++++",
"+++++++ +++++++++++++++ ++++++++",
"+++++++  ++++++++++++++  +++++++",
"+++++++ +++++++++++++++ ++++++++"
};
