/* XPM */
static char *a12c68dd686949ccfc665aa8d0a27af0UUvCUV8MTJWB8w6j[] = {
/* columns rows colors chars-per-pixel */
"32 32 2 1 ",
"  c #000001",
". c white",
/* pixels */
"  .           .  .           .  ",
" ..............  .............. ",
"..             ..             ..",
" . ..                      .. . ",
" . .... ................ .... . ",
" .  .  ..................  .  . ",
" .  .  ....          ....  .  . ",
" .   ...  .          .  ...   . ",
" .  ...    .        .    ...  . ",
" .  ...    .        .    ...  . ",
" .  ....    .      .    ....  . ",
" .  ..  ..   .    .   ..  ..  . ",
" .  ..    .   ....   .    ..  . ",
" .  ..     .        .     ..  . ",
"..  ..      .      .      ..  ..",
"  . ..      .      .      .. .  ",
"  . ..      .      .      .. .  ",
"..  ..      .      .      ..  ..",
" .  ..     .        .     ..  . ",
" .  ..    .   ....   .    ..  . ",
" .  ..  ..   .    .   ..  ..  . ",
" .  ....    .      .    ....  . ",
" .  ...    .        .    ...  . ",
" .  ...    .        .    ...  . ",
" .   ...  .          .  ...   . ",
" .  .  ....          ....  .  . ",
" .  .  ..................  .  . ",
" . .... ................ .... . ",
" . ..                      .. . ",
"..             ..             ..",
" ..............  .............. ",
"  .           .  .           .  "
};
