/* XPM */
static char *f20bc46bdbbc40d9e7cf7eba9716962cEnOKJqtWy9p7NbRD[] = {
/* columns rows colors chars-per-pixel */
"32 32 2 1 ",
"  c red",
". c white",
/* pixels */
"                                ",
"                                ",
"                                ",
"   ..                           ",
"   .... ........................",
"    .  .........................",
"    .  ....                     ",
"     ...  .                     ",
"    ...    .                    ",
"    ...    .                    ",
"    ....    .                   ",
"    ..  ..   .                  ",
"    ..    .   ..                ",
"    ..     .    ................",
"    ..      .                   ",
"    ..      .                   ",
"    ..       .                 .",
"    ..       .   .............. ",
"    ..       .   .............. ",
"    ..       .   ..           . ",
"    ..       .   .. ............",
"    ..       .   .. ............",
"    ..       .   .. ............",
"    ..       .   .. ............",
"    ..       .   .. ............",
"    ..       .   .. ............",
"    ..       .   .. ............",
"    ..       .   .. ............",
"    ..       .   .. ............",
"    ..       .   .. ............",
"    ..       .   ...............",
"    ..       .  .   ............"
};
