/* XPM */
static char *_39d360d1a42492ed979ebd2107b3e58nV4mRIsKwolvl0BN[] = {
/* columns rows colors chars-per-pixel */
"32 32 2 1 ",
"  c red",
". c white",
/* pixels */
"                                ",
"                                ",
"                                ",
"                                ",
"................................",
"................................",
"                                ",
"                                ",
"                                ",
"                                ",
"                                ",
"                                ",
"                                ",
"................................",
"                                ",
"                                ",
".              ..              .",
" ..............  .............. ",
" ..............  .............. ",
" .            .  .            . ",
"................................",
"................................",
"................................",
"................................",
"................................",
"................................",
"................................",
"................................",
"................................",
"................................",
"................................",
"................................"
};
