/* XPM */
static char *_db19f8a714c446ffbfbac09a4ee9fe9zDMBXrjY3ZMAz4Wb[] = {
/* columns rows colors chars-per-pixel */
"32 32 2 1 ",
"  c red",
". c white",
/* pixels */
"............   .  .       ..    ",
"...............   .       ..    ",
"............ ..   .       ..    ",
"............ ..   .       ..    ",
"............ ..   .       ..    ",
"............ ..   .       ..    ",
"............ ..   .       ..    ",
"............ ..   .       ..    ",
"............ ..   .       ..    ",
"............ ..   .       ..    ",
"............ ..   .       ..    ",
"............ ..   .       ..    ",
" .           ..   .       ..    ",
" ..............   .       ..    ",
" ..............   .       ..    ",
".                 .       ..    ",
"                   .      ..    ",
"                   .      ..    ",
"................    .     ..    ",
"                ..   .    ..    ",
"                  .   ..  ..    ",
"                   .    ....    ",
"                    .    ...    ",
"                    .    ...    ",
"                     .  ...     ",
"                     ....  .    ",
".........................  .    ",
"........................ ....   ",
"                           ..   ",
"                                ",
"                                ",
"                                "
};
