/* XPM */
static char *_5ed9c7aab3b4ac0a9a0b5764ce3d9b1J7U0darr8uniTfUy[] = {
/* columns rows colors chars-per-pixel */
"32 32 2 1 ",
"  c #000001",
"+ c white",
/* pixels */
"+   + +  + +  +++   + +  + +  ++",
"  ++++++++++++    ++++++++++++  ",
" ++++++++++++++  ++++++++++++++ ",
" +++++++++++++++ +++++++++++++++",
" ++++++++++++++  ++++++++++++++ ",
" +++++++++++++++ +++++++++++++++",
" ++++++++++++++  ++++++++++++++ ",
" +++++++++++++++ +++++++++++++++",
" + +  +++   + +  + +  +++   + + ",
"++++++    ++++++++++++    ++++++",
"+++++++  ++++++++++++++  +++++++",
"+++++++ +++++++++++++++ ++++++++",
"+++++++  ++++++++++++++  +++++++",
"+++++++ +++++++++++++++ ++++++++",
"+++++++  ++++++++++++++  +++++++",
"+++++++ +++++++++++++++ ++++++++",
"+   + +  + +  +++   + +  + +  ++",
"  ++++++++++++    ++++++++++++  ",
" ++++++++++++++  ++++++++++++++ ",
" +++++++++++++++ +++++++++++++++",
" ++++++++++++++  ++++++++++++++ ",
" +++++++++++++++ +++++++++++++++",
" ++++++++++++++  ++++++++++++++ ",
" +++++++++++++++ +++++++++++++++",
" + +  +++   + +  + +  +++   + + ",
"++++++    ++++++++++++    ++++++",
"+++++++  ++++++++++++++  +++++++",
"+++++++ +++++++++++++++ ++++++++",
"+++++++  ++++++++++++++  +++++++",
"+++++++ +++++++++++++++ ++++++++",
"+++++++  ++++++++++++++  +++++++",
"+++++++ +++++++++++++++ ++++++++"
};
