/* XPM */
static char *b32e90327ad140cb8cc245ec838a3f94TCjGAnHNtWf8aXhi[] = {
/* columns rows colors chars-per-pixel */
"32 32 3 1 ",
"  c None",
". c black",
"X c white",
/* pixels */
"                                ",
"                                ",
"                                ",
"                                ",
"                                ",
"                                ",
"                                ",
"              XXXX              ",
"            XX....XX            ",
"           X..XXXX..X           ",
"          X.XXXXXXXX.X          ",
"         X.XX..XX..XX.X         ",
"         X.X...XX...X.X         ",
"         X.X...XX...X.X         ",
"        X...XXX..XXX...X        ",
"       X......XXXX......X       ",
"      X......X....X......X      ",
"      X......X....X......X      ",
"      X.XX...X....X...XX.X      ",
"     X.XX.X..X....X..X.XX.X     ",
"     X.X......XXXX......X.X     ",
"      X..................X      ",
"       X..X..........X..X       ",
"       X.X.X........X.X.X       ",
"        X..............X        ",
"         XXXXXXXXXXXXXX         ",
"                                ",
"                                ",
"                                ",
"                                ",
"                                ",
"                                "
};
