/* XPM */
static char *_de18d0a0d6d48e5bd7342d2dc4e0f73e2tWE8bJDWHWO7c6[] = {
/* columns rows colors chars-per-pixel */
"32 32 3 1 ",
"  c None",
". c black",
"X c white",
/* pixels */
"                                ",
"                                ",
"                                ",
"                                ",
"                                ",
"                                ",
"              XXXX              ",
"            XX....XX            ",
"           X..XXXX..X           ",
"          X.XXXXXXXX.X          ",
"         X.XXXXXXXXXX.X         ",
"         X.X..XXXX..X.X         ",
"       XX..X...XX...X..XX       ",
"      X.....XXX..XXX.....X      ",
"     X........XXXX........X     ",
"     X.......X....X.......X     ",
"    X.........XXXX.........X    ",
"   X.XXX................XXX.X   ",
"  X.X.X.X..............X.X.X.X  ",
"  X.X...X..............X...X.X  ",
"   X........................X   ",
"    XX....................XX    ",
"     X....XXX......XXX....X     ",
"      X..X.X.X....X.X.X..X      ",
"       XX.....XXXX.....XX       ",
"         XXXXX    XXXXX         ",
"                                ",
"                                ",
"                                ",
"                                ",
"                                ",
"                                "
};
