/* XPM */
static char *d4f5edb6ec5544fe9c8497deeab19777duNY0qmurRsSAN82[] = {
/* columns rows colors chars-per-pixel */
"32 32 3 1 ",
"  c None",
". c black",
"X c white",
/* pixels */
"                                ",
"                                ",
"                                ",
"                                ",
"                                ",
"                                ",
"              XXXX              ",
"            XX....XX            ",
"           X..XXXX..X           ",
"          X.XXXXXXXX.X          ",
"         X.XXXXXXXXXX.X         ",
"         X.X..XXXX..X.X         ",
"         X.X...XX...X.X         ",
"       XX...XXX..XXX...XX       ",
"      X.......XXXX.......X      ",
"     X.......X....X.......X     ",
"     X.......X....X.......X     ",
"    X.........XXXX.........X    ",
"    X.XXX..............XXX.X    ",
"   X.X.X.X............X.X.X.X   ",
"   X.X...X............X...X.X   ",
"    X......................X    ",
"     XX...XXX......XXX...XX     ",
"       X.X.X.X....X.X.X.X       ",
"        X.....XXXX.....X        ",
"         XXXXX    XXXXX         ",
"                                ",
"                                ",
"                                ",
"                                ",
"                                ",
"                                "
};
