/* XPM */
static char *result[] = {
/* columns rows colors chars-per-pixel */
"32 32 3 1 ",
"  c black",
", c white",
". c none",
/* pixels */
"................................",
"................................",
"................................",
".............,,,,,,.............",
"........,,,,,,,  ,,,,,,,........",
"........,              ,........",
"........, ,,,,,,,,,,,, ,........",
"........, ,          , ,........",
"........, ,          , ,........",
"........, ,          , ,........",
"........, ,,,,,,,,,,,, ,........",
"........, ,          , ,........",
"........, ,          , ,........",
"........, ,,,,,,,,,,,, ,........",
"........,              ,........",
"........, ,,        ,, ,........",
"........, ,, ,,,,,, ,, ,........",
"........, ,, ,,,,,, ,, ,........",
"........, ,, ,,,,,, ,, ,........",
"........, ,,        ,, ,........",
"........,              ,........",
"........,    ,,,,,,    ,........",
"........,,,,,,,,,,,,,,,,........",
"................................",
"................................",
"................................",
"................................",
"................................",
"................................",
"................................",
"................................",
"................................"
};
