/* XPM */
static char *e7885e40c74740e794773b557e5633612qvVTWAYRmetSQNy[] = {
/* columns rows colors chars-per-pixel */
"32 32 3 1 ",
"  c black",
", c white",
". c none",
/* pixels */
"................................",
"................................",
"................................",
"................................",
"................................",
".............,,,,,,.............",
"........,,,,,,,  ,,,,,,,........",
"........,,            ,,........",
"........,, ,,,,,,,,,, ,,........",
"........,, ,        , ,,........",
"........,, ,        , ,,........",
"........,, ,,,,,,,,,, ,,........",
"........,, ,        , ,,........",
"........,, ,        , ,,........",
"........,, ,,,,,,,,,, ,,........",
"........,,            ,,........",
"........,, ,,      ,, ,,........",
"........,, ,, ,,,, ,, ,,........",
"........,, ,, ,,,, ,, ,,........",
"........,, ,,      ,, ,,........",
"........,,            ,,........",
"........,,    ,,,,    ,,........",
"........,,,,,,,,,,,,,,,,........",
"................................",
"................................",
"................................",
"................................",
"................................",
"................................",
"................................",
"................................",
"................................"
};
