/* XPM */
static char *c831532a79554adfc196ab71b80b4390RgEIxtnKC52XKIwI[] = {
/* columns rows colors chars-per-pixel */
"96 96 2 1 ",
"  c None",
". c white",
/* pixels */
"                                                                                                ",
"                                                                                                ",
"                                                                                                ",
"                                                                                                ",
"                                                                                                ",
"                                                                                                ",
"                                                                                                ",
"                                                                                                ",
"                                                                                                ",
"                                                                                                ",
"                                                                                                ",
"                                                                                                ",
"                                                                                                ",
"                                                                                                ",
"           ..     ........                                                                      ",
"          ...     ........                                                                      ",
"          ...     ........                                                                      ",
"        ..   .....   ..                                                                         ",
"        ..   .....   ..                                                                         ",
"       ...   .....   ..                                                                         ",
"     .....   .....        ...  .....   ...          ..   .....   .....             ......       ",
"     .....   .....        ...  .....   ...          ..   .....   .....             ......       ",
"     .....   .....      .....  .............     ........  ......  .....      ...........       ",
"     .....   .....     ......  .............     ........  ......  ......     ...........       ",
"     .....   .....     ......  .............     ........  ......  ......     ...........       ",
"     .............   ........       ........        .....  ......  ......     .....   .....     ",
"     .............   ........       ........        .....  ......  ......     .....   .....     ",
"     .............   ........     ..........        .....  ......  ......     .............     ",
"     .....   .....     ......     ..   .....        .....  ......  ......     ........          ",
"     .....   .....     ......     ..   .....        .....  ......  ......     ........          ",
"     ........  ...     ......  .....   .....        .....  ......  ......     .....             ",
"     ........  ...     ......  .....   .....        .....  ......  ......     .....             ",
"     ........  ...     .....   .....   .....       ......  ......  ......     .....             ",
"        ........       ...     ................  ........  ......  ........   .....             ",
"        ........       ...     ................  ........  ......  ........   .....             ",
"          .............        ...     .....          ...     ...     ...       ......          ",
"          .............        ...     .....          ...     ...     ...        .....          ",
"          .............        ...     .....          ...     ...     ...        .....          ",
"                                                                                                ",
"                                                                                                ",
"                                                                                                ",
"                                                                                                ",
"                                                                                                ",
"                                                                                                ",
"                                                                                                ",
"                                                                                                ",
"                                                                                                ",
"                                                                                                ",
"                                                                                                ",
"                                                                                                ",
"                                                                                                ",
"                                                                                                ",
"                                                                                                ",
"                                                                                                ",
"                                                                                                ",
"                                                                                                ",
"                                                                                                ",
"                ..   .......                                                                    ",
"               ...  ........                                                                    ",
"               ...  ........                                                                    ",
"             ..   .....   .....                                                                 ",
"             ..   .....   .....                                                                 ",
"            ...   .....   .....                                                                 ",
"          .....   .....     ......     ..     ...          ......        ..     ...             ",
"          .....   .....     ......     ..     ...          ......        ..     ...             ",
"          .....   .....     ......  ........  ......  ...........     ................          ",
"          .....   .....     ......  ........  ......  ...........     ................          ",
"          .....   .....     ......  ........  ......  ...........     ................          ",
"          .....   ........  ......     .....  ......  .....   .....      .....  ...             ",
"          .....   ........  ......     .....  ......  .....   .....      .....  ...             ",
"          .....   .......   ......     .....  ......  .............      .....   ..             ",
"          .....   .....     ......     .....  ......  ........           .....                  ",
"          .....   .....     ......     .....  ......  ........           .....                  ",
"          ........  ...     ......     .....  ......  .....              .....                  ",
"          ........  ...     ......     .....  ......  .....              .....                  ",
"          ........  ...     .....      .....  ......  .....             ......                  ",
"             ........     .....        ..........     .....           ...........               ",
"             ........     .....        ..........     .....           ...........               ",
"               ..............               ...         ......             ...                  ",
"               .............                ...          .....             ...                  ",
"               .............                ...          .....             ...                  ",
"                                                                                                ",
"                                                                                                ",
"                                                                                                ",
"                                                                                                ",
"                                                                                                ",
"                                                                                                ",
"                                                                                                ",
"                                                                                                ",
"                                                                                                ",
"                                                                                                ",
"                                                                                                ",
"                                                                                                ",
"                                                                                                ",
"                                                                                                ",
"                                                                                                "
};
