/* XPM */
static char * win_1_xpm[] = {
"32 32 3 1",
" 	c #FFFFFF",
".	c #000001",
"+	c #000001",
" ... . .. . ..   ... . .. . ..  ",
"..            ....            ..",
".              ..              .",
".               .               ",
".                   +++        .",
".         ++++++++  +  +        ",
".        ++++++++++ ++  +      .",
".        ++   ++ ++ +++  +      ",
". . ..   ++      ++ ++++ + . . .",
"      .. +   ++   + ++++ +      ",
"        + ++++++++ +++++ +      ",
"      +++  ++  ++  +++++ +      ",
" +++++++++   ++   ++++++ +      ",
" +      +++      +++      +     ",
" +   ++ ++   ++   +++    ++     ",
" +   ++ +++           ++        ",
" +   ++ ++++++++ ++++++++++++   ",
" +   ++ ++++++++ +          + ..",
". +  + +++++++++ + ++++++++ +  .",
".  +  ++  ++++++ + ++++++++ +   ",
".   +++ ++++++++ +          +  .",
".     +     ++++ + ++++++++ +   ",
".      +++++     + ++++++++ +  .",
".                +          +   ",
". . ..   ... . . ++++++++++++  .",
"      ....       +  ++++++  +   ",
"       ..        +  +    +  +   ",
"       .         +  +    +  +   ",
"       ..        +  ++++++  +   ",
"       .         ++++++++++++   ",
"       ..        ++++    ++++   ",
"       .               .        "};
