/* XPM */
static char *_f70314bbc9d4db19aa7ac095fab68d8XBLxB6P8NK2xXAD8[] = {
/* columns rows colors chars-per-pixel */
"32 32 3 1 ",
"  c None",
". c black",
"X c white",
/* pixels */
"                                ",
"                                ",
"                                ",
"                                ",
"               XXX              ",
"            XXX...XX XXX        ",
"           X........X...X       ",
"          X...........XX.X      ",
"          X..XXX..X....XX.X     ",
"          X..XXXXXX.....XX.X    ",
"          X.XXX..XXX.....X.X    ",
"         X.X........X....X.X    ",
"         X.XX..XX..XX....X.X    ",
"    XXXXX...XXX..XXX.....X.X    ",
"   X.........X.XX.X......X.X    ",
"   X.XXXXXX.XX....XX.XXXXXX.X   ",
"   X.XXX..X.XX....XX........X   ",
"   X.XXX..X.XX....XX.XX.XX.X    ",
"   X.XXX..X..XXXXXX..XX.XX.X    ",
"   X.XXX..X.............XX.X    ",
"    X.XX.X.............XX.X     ",
"     X.XX.X..........X...X      ",
"      X..X............X.X       ",
"       X.XXXX......XXXX.X       ",
"        X..............X        ",
"         XXXXXXXXXXXXXX         ",
"                                ",
"                                ",
"                                ",
"                                ",
"                                ",
"                                "
};
