/* XPM */
static char *_ac0c0ca6a454519d581e826030444cehmL7pmNsb97yeuSR[] = {
/* columns rows colors chars-per-pixel */
"32 32 3 1 ",
"  c black",
"X c white",
". c none",
/* pixels */
"................................",
"................................",
"................................",
"................................",
"................................",
"................................",
"................................",
"................................",
"................................",
"................................",
"................................",
".......XXXXXXXXXXX..............",
".......X         X.XXXXXX.......",
".......X XXXXXXX X.X    X.......",
".......X XXXXXXX XXX XX X.......",
".......X XX   XX      X X.......",
".......X XX   XXXXXXXXX X.......",
".......X XX   XX XXXXXX X.......",
".......X XXXXXXX        X.......",
".......X XXXXXXX        X.......",
".......X         XXXXXXXX.......",
".......X         X..............",
".......XXXXXXXXXXX..............",
"................................",
"................................",
"................................",
"................................",
"................................",
"................................",
"................................",
"................................",
"................................"
};
