/* XPM */
static char *_d40e319db4f4b5dd1cf3574c09fc4ae0289cKwHRcOpymTE[] = {
/* columns rows colors chars-per-pixel */
"32 32 3 1 ",
"  c black",
"X c white",
". c none",
/* pixels */
"................................",
"................................",
"................................",
"................................",
"................................",
"................................",
"................................",
"................................",
"................................",
"................................",
"................................",
".......XXXXXXXXXXX..............",
".......XX        XXXXXXX........",
".......XX XXXXXX XX    X........",
".......XX XXXXXX XX XX X........",
".......XX XX  XX     X X........",
".......XX XX  XXXXXXXX X........",
".......XX XX  XX XXXXX X........",
".......XX XXXXXX       X........",
".......XX XXXXXX       X........",
".......XX        XXXXXXX........",
".......XX        X..............",
".......XXXXXXXXXXX..............",
"................................",
"................................",
"................................",
"................................",
"................................",
"................................",
"................................",
"................................",
"................................"
};
